<svg width="480" height="480" viewBox="0 0 480 480" fill="none" xmlns="http://www.w3.org/2000/svg">
<path d="M195.715 435.557C190.015 440.274 182.841 442.816 175.442 442.816H131.541C127.101 442.816 124.272 438.08 126.407 434.186C145.102 400.093 169.942 358.498 196.102 314.692L196.105 314.686C206.875 296.652 217.868 278.243 228.749 259.828C265.896 196.958 301.757 133.976 322.004 86.8158C324.63 80.6999 327.03 74.7688 329.152 69.0723C336.051 50.5531 353.057 36.0557 372.82 36.0557H402.817C424.908 36.0557 442.817 53.9643 442.817 76.0557V199.678C442.817 206.393 440.089 212.82 435.251 217.476C400.777 250.655 354.322 294.768 306.37 338.54C268.644 372.977 230.072 407.128 195.715 435.557Z" fill="black"/>
</svg>
