<svg width="480" height="480" viewBox="0 0 480 480" fill="none" xmlns="http://www.w3.org/2000/svg">
<path d="M305.465 79.7145C314.928 57.6733 298.031 36.0557 274.044 36.0557H271.732C264.34 36.0557 257.058 38.0521 250.921 42.1724C243.934 46.8631 236.773 52.0838 229.485 57.7541C197.287 82.8074 163.349 116.068 132.087 149.508C100.864 182.907 72.5111 216.267 51.4634 241.418C47.3957 246.278 43.5861 250.85 40.0786 255.059C37.4803 258.177 36.0566 262.108 36.0566 266.167V402.816C36.0566 424.908 53.9653 442.816 76.0566 442.816H81.7234C93.7852 442.816 104.825 436.108 110.625 425.532C129.488 391.132 154.605 349.071 180.849 305.125L180.855 305.115C191.582 287.15 202.498 268.871 213.252 250.671C250.48 187.666 285.744 125.648 305.465 79.7145Z" fill="black"/>
</svg>
