<svg width="480" height="480" viewBox="0 0 480 480" fill="none" xmlns="http://www.w3.org/2000/svg">
<path d="M442.817 168.116C442.817 138.261 411.252 118.882 383.876 130.792C373.816 135.169 363.856 139.29 353.962 143.165C264.71 178.119 181.193 192.803 76.8657 193.969C54.4687 194.219 36.0566 212.167 36.0566 234.565V274.079C36.0566 304.484 68.9032 324.157 97.0405 312.636C147.546 291.957 199.034 278.364 251.696 266.651C273.741 261.747 295.955 257.177 318.379 252.564L318.382 252.563C349.39 246.184 380.799 239.722 412.719 232.182C430.477 227.988 442.817 212.011 442.817 193.764V168.116Z" fill="black"/>
</svg>
